HIERARCHY
ROOT Hips
{
	OFFSET 54.587002 -14.769414 85.767197
	CHANNELS 6 Xposition Yposition Zposition Xrotation Yrotation Zrotation
	JOINT spine
	{
		OFFSET 0.000000 -0.367607 6.392601
		CHANNELS 3 Xrotation Yrotation Zrotation
		JOINT spine1
		{
			OFFSET 0.000000 -0.000001 9.176109
			CHANNELS 3 Xrotation Yrotation Zrotation
			JOINT spine2
			{
				OFFSET 0.000000 -0.000002 8.792381
				CHANNELS 3 Xrotation Yrotation Zrotation
				JOINT Neck
				{
					OFFSET 0.000000 -1.076242 22.573708
					CHANNELS 3 Xrotation Yrotation Zrotation
					JOINT Head
					{
						OFFSET 0.000000 -0.000002 6.820114
						CHANNELS 3 Xrotation Yrotation Zrotation
						End Site
						{
							OFFSET 0.000000 5.444267 16.508499
						}
					}
				}
				JOINT RightShoulder
				{
					OFFSET -3.702209 0.515507 9.495087
					CHANNELS 3 Xrotation Yrotation Zrotation
					JOINT RightArm
					{
						OFFSET 0.000000 -0.000003 12.453697
						CHANNELS 3 Xrotation Yrotation Zrotation
						JOINT RightArmRoll
						{
							OFFSET 0.000000 -0.000001 6.286865
							CHANNELS 3 Xrotation Yrotation Zrotation
							JOINT RightForeArm
							{
								OFFSET 0.000000 -0.000003 18.311401
								CHANNELS 3 Xrotation Yrotation Zrotation
								JOINT RightForeArmRoll
								{
									OFFSET 0.000000 -0.000001 7.054825
									CHANNELS 3 Xrotation Yrotation Zrotation
									JOINT RightHand
									{
										OFFSET 0.000000 -0.000002 14.157501
										CHANNELS 3 Xrotation Yrotation Zrotation
										End Site
										{
											OFFSET 0.000000 0.000000 0.100006
										}
									}
								}
							}
						}
					}
				}
				JOINT LeftShoulder
				{
					OFFSET 3.702209 0.515507 9.495087
					CHANNELS 3 Xrotation Yrotation Zrotation
					JOINT LeftArm
					{
						OFFSET 0.000000 -0.000003 12.453697
						CHANNELS 3 Xrotation Yrotation Zrotation
						JOINT LeftArmRoll
						{
							OFFSET 0.000000 -0.000001 6.286865
							CHANNELS 3 Xrotation Yrotation Zrotation
							JOINT LeftForeArm
							{
								OFFSET 0.000000 -0.000003 18.311401
								CHANNELS 3 Xrotation Yrotation Zrotation
								JOINT LeftForeArmRoll
								{
									OFFSET 0.000000 -0.000001 7.054825
									CHANNELS 3 Xrotation Yrotation Zrotation
									JOINT LeftHand
									{
										OFFSET 0.000000 -0.000002 14.157501
										CHANNELS 3 Xrotation Yrotation Zrotation
										End Site
										{
											OFFSET 0.000000 0.000000 0.100006
										}
									}
								}
							}
						}
					}
				}
			}
		}
	}
	JOINT RightUpLeg
	{
		OFFSET -5.666161 0.871611 -1.039032
		CHANNELS 3 Xrotation Yrotation Zrotation
		JOINT RightUpLegRoll
		{
			OFFSET 0.000000 -0.000003 16.600502
			CHANNELS 3 Xrotation Yrotation Zrotation
			JOINT RightLeg
			{
				OFFSET 0.000000 0.000003 -20.557198
				CHANNELS 3 Xrotation Yrotation Zrotation
				JOINT RightLegRoll
				{
					OFFSET 0.000000 -0.000003 20.624397
					CHANNELS 3 Xrotation Yrotation Zrotation
					JOINT RightFoot
					{
						OFFSET 0.000000 -0.000003 17.166405
						CHANNELS 3 Xrotation Yrotation Zrotation
						JOINT RightToeBase
						{
							OFFSET 0.000000 -0.000003 14.350204
							CHANNELS 3 Xrotation Yrotation Zrotation
							End Site
							{
								OFFSET 0.006081 0.801060 6.949707
							}
						}
					}
				}
			}
		}
	}
	JOINT LeftUpLeg
	{
		OFFSET 5.666161 0.871611 -1.039032
		CHANNELS 3 Xrotation Yrotation Zrotation
		JOINT LeftUpLegRoll
		{
			OFFSET 0.000000 -0.000003 16.600601
			CHANNELS 3 Xrotation Yrotation Zrotation
			JOINT LeftLeg
			{
				OFFSET 0.000000 -0.000004 20.557098
				CHANNELS 3 Xrotation Yrotation Zrotation
				JOINT LeftLegRoll
				{
					OFFSET 0.000000 -0.000003 20.815094
					CHANNELS 3 Xrotation Yrotation Zrotation
					JOINT LeftFoot
					{
						OFFSET 0.000000 -0.000003 16.975708
						CHANNELS 3 Xrotation Yrotation Zrotation
						JOINT LeftToeBase
						{
							OFFSET 0.000000 -0.000003 14.350204
							CHANNELS 3 Xrotation Yrotation Zrotation
							End Site
							{
								OFFSET -0.027260 0.801060 6.949707
							}
						}
					}
				}
			}
		}
	}
}
MOTION
Frames: 7
Frame Time: 0.041667
54.164505 -15.075214 85.733299 -4.066569 2.532037 -6.025826 -1.074382 0.083759 -0.096337 1.867917 0.152113 -0.182212 3.512982 0.149917 -0.184019 8.005132 -2.872382 0.793029 4.020832 1.327027 1.045940 -1.352920 -62.830405 -2.020191 -46.644994 -115.166989 -37.894337 -0.000002 -0.000000 -0.000002 1.734258 -12.876799 -0.244686 -0.000000 -0.000003 -3.007121 -5.000212 -7.998704 0.000167 -2.914715 54.122784 2.893262 -34.787171 117.226578 31.315454 0.000000 0.000002 0.000015 3.591478 9.739249 0.249228 -0.000002 0.000000 2.999999 -5.000231 7.998833 -0.000142 2.286796 -176.289942 0.837307 -179.999991 0.000005 -1.139994 174.689191 -3.250025 -0.518953 0.000004 0.000001 0.048991 68.780954 6.909784 2.106536 25.456953 -7.355615 0.000011 2.965679 172.509938 -1.621467 -0.000005 -0.000004 -1.093430 -8.110944 1.153439 0.664992 -0.000003 -0.000003 -0.087632 70.898477 -6.452476 -3.189071 25.457964 7.355615 -0.001599 
54.172703 -15.071718 85.734901 -4.063072 2.534112 -6.022294 -1.074850 0.083867 -0.095570 1.865976 0.153225 -0.182560 3.511043 0.151025 -0.184381 8.003000 -2.870942 0.789700 4.022078 1.326276 1.042533 -1.370697 -62.829339 -2.040559 -46.656606 -115.167767 -37.877910 -0.000001 0.000001 -0.000003 1.713515 -12.858746 -0.248474 0.000001 -0.000003 -3.007120 -5.000210 -7.998704 0.000166 -2.905327 54.124314 2.882086 -34.787175 117.226578 31.328640 -0.000001 0.000003 0.000014 3.617601 9.748116 0.246666 -0.000005 0.000001 3.000001 -5.000230 7.998833 -0.000143 2.284944 -176.292933 0.835051 -179.999991 0.000006 -1.139995 174.691022 -3.250033 -0.518849 0.000004 0.000001 0.048991 68.781685 6.909799 2.106492 25.456953 -7.355614 0.000010 2.959326 172.506891 -1.621363 -0.000005 -0.000004 -1.093430 -8.114002 1.151984 0.664994 -0.000004 -0.000003 -0.087632 70.898463 -6.452120 -3.190109 25.457964 7.355617 -0.001600 
54.173805 -15.058618 85.732697 -4.059383 2.536189 -6.018701 -1.075342 0.083948 -0.094765 1.863976 0.154303 -0.182917 3.509042 0.152098 -0.184751 8.000886 -2.869373 0.786235 4.023191 1.325317 1.039004 -1.388478 -62.828069 -2.060904 -46.666308 -115.169106 -37.860521 -0.000000 0.000000 -0.000003 1.693704 -12.841380 -0.252087 0.000001 -0.000004 -3.007121 -5.000209 -7.998703 0.000166 -2.895825 54.125943 2.870772 -34.786802 117.226468 31.341710 0.000001 0.000003 0.000014 3.644123 9.757176 0.244064 -0.000002 0.000000 3.000001 -5.000231 7.998831 -0.000142 2.282942 -176.295925 0.832749 -179.999991 0.000005 -1.139993 174.692880 -3.250043 -0.518744 0.000003 0.000001 0.048991 68.782525 6.909775 2.106537 25.456957 -7.355616 0.000010 2.952689 172.503845 -1.621251 -0.000005 -0.000004 -1.093430 -8.117177 1.150550 0.664995 -0.000004 -0.000003 -0.087633 70.898463 -6.451793 -3.191055 25.457966 7.355616 -0.001600 
54.176205 -15.062115 85.734200 -4.055579 2.538256 -6.015074 -1.075843 0.084008 -0.093934 1.861927 0.155358 -0.183281 3.506993 0.153150 -0.185126 7.998803 -2.867724 0.782677 4.024183 1.324227 1.035388 -1.406256 -62.826587 -2.081230 -46.675518 -115.170213 -37.843455 -0.000001 0.000001 -0.000002 1.674523 -12.824407 -0.255582 0.000002 -0.000003 -3.007119 -5.000211 -7.998703 0.000166 -2.886255 54.127572 2.859372 -34.786430 117.226359 31.354909 0.000000 0.000002 0.000014 3.670934 9.766393 0.241430 -0.000002 0.000000 3.000001 -5.000231 7.998830 -0.000143 2.280820 -176.298930 0.830417 -179.999991 0.000005 -1.139995 174.694779 -3.249047 -0.518543 0.000004 0.000001 0.048991 68.783277 6.909820 2.106499 25.456959 -7.355617 0.000010 2.945851 172.500826 -1.621131 -0.000005 -0.000005 -1.093430 -8.120434 1.149124 0.664995 -0.000004 -0.000002 -0.087632 70.898573 -6.451470 -3.191895 25.457964 7.355617 -0.001600 
54.191200 -15.035119 85.729195 -4.051689 2.540313 -6.011411 -1.076350 0.084059 -0.093089 1.859848 0.156401 -0.183646 3.504913 0.154187 -0.185503 7.996720 -2.866025 0.779063 4.025124 1.323059 1.031738 -1.424032 -62.825016 -2.101545 -46.684555 -115.171265 -37.826670 0.000000 0.000001 -0.000004 1.655728 -12.807735 -0.258996 0.000001 -0.000003 -3.007119 -5.000212 -7.998703 0.000166 -2.876617 54.129208 2.847896 -34.785870 117.226209 31.368023 0.000003 0.000002 0.000015 3.697896 9.775694 0.238776 -0.000004 0.000000 3.000001 -5.000232 7.998831 -0.000142 2.278639 -176.301922 0.828067 -179.999991 0.000005 -1.139995 174.696691 -3.249057 -0.518435 0.000004 0.000001 0.048992 68.784124 6.909804 2.106541 25.456959 -7.355615 0.000010 2.938921 172.496769 -1.621051 -0.000005 -0.000005 -1.093430 -8.123740 1.147710 0.664995 -0.000004 -0.000002 -0.087633 70.898695 -6.451178 -3.192638 25.457964 7.355617 -0.001600 
54.176403 -15.038017 85.726494 -4.047778 2.542380 -6.007739 -1.076861 0.084106 -0.092240 1.857767 0.157440 -0.184012 3.502833 0.155221 -0.185883 7.994643 -2.864306 0.775435 4.026053 1.321871 1.028061 -1.441807 -62.823431 -2.121858 -46.693577 -115.172316 -37.810001 -0.000001 0.000001 -0.000003 1.637017 -12.791153 -0.262385 0.000002 -0.000003 -3.007119 -5.000211 -7.998704 0.000167 -2.866977 54.130837 2.836415 -34.785125 117.225990 31.380990 0.000001 0.000003 0.000013 3.724906 9.785001 0.236110 -0.000003 -0.000000 2.999998 -5.000231 7.998830 -0.000143 2.276435 -176.304914 0.825713 -179.999991 0.000005 -1.139995 174.698617 -3.249067 -0.518326 0.000004 0.000001 0.048991 68.784964 6.909783 2.106586 25.456955 -7.355616 0.000010 2.931948 172.493723 -1.620922 -0.000004 -0.000005 -1.093430 -8.127057 1.146295 0.664995 -0.000003 -0.000002 -0.087633 70.898709 -6.450919 -3.193494 25.457963 7.355616 -0.001600 
54.169106 -15.066716 85.730698 -4.043914 2.544438 -6.004085 -1.077363 0.084160 -0.091398 1.855687 0.158484 -0.184377 3.500764 0.156263 -0.186259 7.992567 -2.862618 0.771836 4.027013 1.320722 1.024420 -1.459577 -62.821853 -2.142167 -46.702614 -115.173368 -37.793093 -0.000001 0.000000 -0.000003 1.618123 -12.774375 -0.265797 0.000002 -0.000003 -3.007118 -5.000210 -7.998703 0.000167 -2.857348 54.132367 2.824950 -34.784576 117.225840 31.394087 0.000001 0.000002 0.000013 3.751832 9.794278 0.233440 -0.000003 0.000000 3.000001 -5.000230 7.998832 -0.000143 2.274272 -176.307905 0.823369 -179.999991 0.000005 -1.139994 174.700502 -3.249077 -0.518219 0.000003 0.000001 0.048991 68.785715 6.909829 2.106448 25.456953 -7.355613 0.000010 2.925039 172.490690 -1.620791 -0.000005 -0.000005 -1.093430 -8.130354 1.144879 0.664996 -0.000003 -0.000002 -0.087633 70.898818 -6.450593 -3.194333 25.457969 7.355616 -0.001600 
